PathFileType	4	(X/Y/Z)	Patient4_TMGait_0pt5_01_left_31.trc.trc
DataRate	CameraRate	NumFrames	NumMarkers	Units	OrigDataRate	OrigDataStartFrame	OrigNumFrames
76.502732240437	76.502732240437	5	33	mm	76.502732240437	124	       141
Frame#	Time	L.ASIS			Sacral			L.Shoulder			Chest			R.Shoulder			Neck			R.ASIS			R.Thigh.Superior			R.Thigh.Lateral			R.Thigh.Inferior			R.Patella			L.Thigh.Superior			L.Thigh.Lateral			L.Thigh.Inferior			L.Patella			L.Shank.Superior			L.Shank.Lateral			L.Shank.Inferior			R.Shank.Superior			R.Shank.Lateral			R.Shank.Inferior			R.Heel			R.Midfoot.Superior			R.Midfoot.Lateral			R.Toe			L.Heel			L.Midfoot.Lateral			L.Midfoot.Superior			L.Toe			L.Elbow			L.Wrist			R.Elbow			R.Wrist			
		X1	Y1	Z1	X2	Y2	Z2	X3	Y3	Z3	X4	Y4	Z4	X5	Y5	Z5	X6	Y6	Z6	X7	Y7	Z7	X8	Y8	Z8	X9	Y9	Z9	X10	Y10	Z10	X11	Y11	Z11	X12	Y12	Z12	X13	Y13	Z13	X14	Y14	Z14	X15	Y15	Z15	X16	Y16	Z16	X17	Y17	Z17	X18	Y18	Z18	X19	Y19	Z19	X20	Y20	Z20	X21	Y21	Z21	X22	Y22	Z22	X23	Y23	Z23	X24	Y24	Z24	X25	Y25	Z25	X26	Y26	Z26	X27	Y27	Z27	X28	Y28	Z28	X29	Y29	Z29	X30	Y30	Z30	X31	Y31	Z31	X32	Y32	Z32	X33	Y33	Z33	

124	42.987785714286	831.522589525265	950.002087492548	357.311593052160	632.576703714106	1009.981202446007	528.690326419818	815.350282192621	1430.181471236058	340.106316054428	927.633945333666	1348.858220322626	488.924448138529	865.553551837858	1423.679947502405	671.855205818426	836.695332340208	1487.536936329185	491.233521643273	861.655188039717	934.638491581107	631.505097694498	859.135627659612	724.006812114357	606.552461280564	758.200195941643	632.422025082137	671.432926116458	817.492390187588	565.284258419806	591.220989107181	799.914532784033	481.723659848000	596.545628509685	900.891273348908	762.961008080336	389.490234547259	844.672161460457	637.376090264245	314.065061873788	944.178328711190	574.675205509775	377.313528721796	967.888520453604	508.707120596689	376.207116743833	950.217432222668	437.592940906016	365.674035530381	881.724209665728	309.989845294334	313.288596585268	963.465434966328	208.731077277378	371.616953362779	763.978679984610	397.968280331584	604.482680543385	682.942535587701	302.219706244083	665.958462587919	715.634077269003	203.446060162586	603.499506143599	568.491724855484	44.168543479092	570.442536485298	738.968530410677	96.536332055757	612.558586424130	649.111555177950	36.395110824317	648.345750365482	857.583037137307	40.609286079656	645.399785488895	868.432490585640	38.928936695222	408.172029705102	944.113694648346	37.852766347392	329.319489163498	1022.193582381496	105.866012538038	352.824023451251	1152.819881441421	62.485638347974	329.122758613830	690.372055067911	1095.794743462529	235.824300931381	721.758432486981	835.593526163632	221.477837877024	957.004002118895	1095.858677663442	785.627534336816	1200.339607891978	1104.374437233480	715.556873053252	
125	43.000857142857	832.216303663582	948.518752786936	355.164366886755	632.582940560758	1008.441961734217	525.512099560029	813.996429398184	1428.649089956285	336.032637687924	926.194076426603	1348.370495669389	485.507339557512	863.037140411308	1423.585998399665	667.959996720801	834.638131762845	1486.652244297982	486.953144411900	861.606731104471	933.963525406618	629.383300838541	858.619716866585	722.853812951102	604.908177158312	756.742564975145	631.737746652769	669.530441681990	815.787793109123	564.145432477363	589.624445866253	797.363142643884	480.333179810762	594.767706932392	901.996785477575	761.647191575514	387.703431218819	845.070712747509	635.947995670526	313.056733825093	944.901128307946	573.818472877242	376.298459505697	967.615705490030	506.890722016580	375.764972976858	949.428421113901	435.214493479466	365.247751418464	879.138744380830	308.441278259139	313.101092448384	959.079359976047	206.174147546583	372.064184291154	760.660309318006	396.804139513143	603.028665457985	678.736035899521	302.003834703343	664.958154876911	710.229730060695	202.750636394307	602.759796033782	561.886996627595	43.949194804742	570.483766089217	732.354050685090	96.503476501271	612.429271682396	642.504223244692	36.284478499489	648.334186930836	850.976507310535	40.648572014189	645.408624520047	860.932465802648	38.219982405536	408.503234660909	936.534626901904	36.652347488905	329.474993344615	1015.791117129783	103.016491188955	353.802254736237	1145.866844487578	57.582690484577	329.593985119836	691.114940819740	1093.474894163298	231.661557928146	726.736671645090	833.688412473177	217.439481973991	953.633807259839	1095.775514290802	783.371315916116	1196.711623488191	1101.049626576562	711.922175190591	
126	43.013928571429	832.910559778722	947.276932791868	352.869594345080	632.607300870139	1007.031148840173	522.279928848086	812.719638203327	1427.170413018972	331.813205458238	924.840963447878	1347.976471242546	481.947087360546	860.669255380854	1423.695813645581	663.878697058855	832.700966536861	1485.869355564123	482.463891005422	861.580336658665	933.325614801249	627.095054475349	858.418273338146	721.725865319342	603.015767108732	755.752592050512	630.962708018102	667.371066196936	814.671445387490	562.979642789734	587.748176365564	795.465401408846	478.773232374310	592.725795953647	903.254558814476	760.739179014824	385.944376902108	845.815999254473	634.928354600335	312.047416700753	945.905969291800	573.352585295888	375.369383733502	967.509169863753	505.427807152361	375.475068818760	948.896177922486	433.181437471193	364.858028049814	876.983314692327	307.255720522499	312.777820850586	954.963295761992	204.032971509292	372.527793557917	757.841135728083	395.501526570793	601.353163619335	674.923253980270	301.797161457518	663.802725483789	705.049854943762	202.014784384214	601.921357002071	555.285634095288	43.795682877717	570.555807034180	725.794138262286	96.455960558620	612.258714518763	635.925266633261	36.184434041091	648.313070457144	844.413353108842	40.643939581468	645.417242786958	853.779460008381	37.705696183582	408.814280135859	929.301409637529	35.836829631257	329.613833256437	1009.494435692662	100.811928301028	354.734748114780	1139.119259157578	53.768273224648	330.016514497652	692.257951832332	1091.083801854056	227.390561240026	732.016424208313	831.781801836178	213.291467517787	949.898345361420	1095.862778832996	781.236880073527	1192.724321488642	1096.983050394384	708.448788230624	
127	43.027000000000	833.578150113600	946.332567261353	350.396389981870	632.633952921834	1005.797825905538	519.014822814341	811.491800888661	1425.797446134458	327.496577914225	923.572529273361	1347.703549877501	478.260094680908	858.503343785355	1424.032477625841	659.647884734058	830.885588137399	1485.222747896855	477.821379070937	861.547063143817	932.762757516844	624.632206536704	858.457507679140	720.661616221160	600.845205117283	755.208609322844	630.119177052698	664.971399294166	814.130958270629	561.814347271307	585.602611532805	794.264511010362	477.042199327780	590.488395838758	904.662945616753	760.312692500363	384.234459896738	846.946005029479	634.352834991549	311.017826475373	947.177350717872	573.261735993532	374.498231817671	967.590416738911	504.327851698773	375.291588044129	948.609642025529	431.516948087777	364.505693986528	875.258904713773	306.460917385066	312.275857763618	951.090181680763	202.329284947142	372.972704110432	755.526447129400	394.086775626108	599.497762928449	671.494777609442	301.637517968257	662.511674258930	700.106939537404	201.281300117777	601.010584456387	548.694521302730	43.788219826282	570.659998019325	719.319094801616	96.404683308144	612.056616934347	629.382692118718	36.140253418972	648.282045569513	837.899724705389	40.583377391701	645.425247937033	846.975018384057	37.379980995347	409.072023267978	922.425169928292	35.364450830394	329.716481565531	1003.306360128952	99.250412244380	355.558513432478	1132.591087056545	51.052901120700	330.361989839340	693.779854466821	1088.685519216536	223.048631151837	737.562632408771	829.938865433078	209.046615723971	945.757999470701	1096.130588126612	779.216329865012	1188.297481702590	1092.191356709525	705.148395012491	
128	43.040071428571	834.211239223848	945.708870719586	347.726083826898	632.652850208632	1004.771249451140	515.722404517455	810.282246985235	1424.568980934745	323.126998578071	922.378777110581	1347.570288374231	474.466023691050	856.565674193424	1424.600371914248	655.308530218565	829.180571794391	1484.734917326689	473.083709465030	861.481988924085	932.310630038445	621.999731329105	858.678111805384	719.704557543407	598.394521844848	755.095506863386	629.233906457155	662.364519229233	814.164824971785	560.682311383653	583.218917723330	793.817989955896	475.146311791107	588.150336993004	906.202466906354	760.367105652291	382.581114330840	848.436598972398	634.194434931680	309.935156587281	948.634491865573	573.460955391309	373.650786485461	967.823704593879	503.542784118053	375.162508041626	948.496009680396	430.191389709882	364.191861998618	873.891359682474	306.026796878876	311.577996244940	947.381242549180	201.031493506202	373.376608367296	753.737167128962	392.596590564888	597.521167424288	668.450589520769	301.576837857772	661.112102577100	695.424729879994	200.607432186707	600.059664286572	542.131831647063	44.039818376605	570.790493631474	712.968106095160	96.369913485767	611.834719983940	622.887935557914	36.221976056788	648.237760075654	831.437905093304	40.455986784835	645.432491107724	840.462329798058	37.214475594515	409.253705493913	915.856561818218	35.163917489510	329.769978581134	997.195580245318	98.262728402312	356.235996259009	1126.249256866308	49.330543793315	330.619044622496	695.636333089596	1086.336646760319	218.670005310662	743.344705692652	828.220172218013	204.715759158459	941.168375542674	1096.574056093451	777.294468389319	1183.334528216847	1086.693342868239	702.035771740082	
